<svg xmlns="http://www.w3.org/2000/svg" version="1.1" xmlns:xlink="http://www.w3.org/1999/xlink" width="512" height="512" x="0" y="0" viewBox="0 0 450 450" style="enable-background:new 0 0 512 512" xml:space="preserve" class=""><g><path d="M276.5 234.3c-.4 0-.9-.1-1.3-.2l-97.1-26c-2-.5-3.7-1.8-4.7-3.6s-1.3-3.9-.8-5.9l4.3-16.1c1.1-4.1 5.4-6.6 9.5-5.5l97.1 26c1.3.3 2.4 1.2 3 2.3s.8 2.5.5 3.8l-5.8 21.5c-.5 2.3-2.5 3.7-4.7 3.7zm-93.7-35.2 90.1 24.2 3.2-11.9-90.1-24.2z" fill="#e205e9" opacity="1" data-original="#000000"></path><path d="M195.8 212.7c-.4 0-.9-.1-1.3-.2-2.7-.7-4.3-3.5-3.5-6.1l5.8-21.5c.7-2.7 3.5-4.2 6.1-3.5 2.7.7 4.3 3.5 3.5 6.1l-5.8 21.5c-.6 2.3-2.6 3.7-4.8 3.7zM303.7 241.5c-.8 0-1.5-.1-2.3-.3l-26.3-7c-2.7-.7-4.3-3.5-3.5-6.1.7-2.7 3.5-4.3 6.1-3.5l25 6.7 3.2-11.9-25-6.7c-2.7-.7-4.3-3.5-3.5-6.1.7-2.7 3.5-4.3 6.1-3.5l26.3 7c2.2.6 4.1 2 5.3 4.1s1.5 4.4.9 6.6l-3.8 14.3c-.6 2.2-2 4.1-4.1 5.3-1.4.7-2.9 1.1-4.4 1.1zM187.3 172.8c-1.2 0-2.4-.4-3.4-1.3-4.3-4-10.7-14.6-4.1-26.1 4.4-7.7-.1-13.6-.6-14.3-1.8-2.1-1.5-5.2.6-7s5.3-1.5 7.1.6c.4.5 9.7 11.7 1.6 25.7-4.2 7.3 1.6 13.2 2.3 13.9 2 1.9 2.1 5.1.2 7.1-1.1.9-2.4 1.4-3.7 1.4zM204.7 172.8c-1.2 0-2.4-.4-3.4-1.3-4.3-4-10.7-14.6-4.1-26.1 4.6-8-.6-14.2-.6-14.3-1.8-2.1-1.5-5.3.6-7 2.1-1.8 5.3-1.5 7 .6.4.5 9.7 11.7 1.6 25.7-4.4 7.6 2 13.6 2.2 13.8 2 1.9 2.1 5 .3 7.1-.9 1-2.3 1.5-3.6 1.5z" fill="#e205e9" opacity="1" data-original="#000000"></path><path d="M311.4 446.7H181c-16.9 0-30.6-13.7-30.6-30.6V380H106c-13.2 0-24-10.8-24-24.1v-73H54c-9 0-18.9-5.4-23.1-12.6-2.7-4.6-2.8-9.6-.3-14l36.5-64.7c-.2-3.3-.3-6.4-.3-9.5 0-97.8 79.6-177.5 177.5-177.5 97.8 0 177.5 79.6 177.5 177.5 0 60-29.8 115.1-79.7 148.1v85.9c-.1 16.9-13.8 30.6-30.7 30.6zm-67.1-432C152 14.7 76.8 89.8 76.8 182.2c0 3.4.1 6.7.3 10.4.1 1-.2 1.9-.6 2.8l-37.3 66c-.5.8-.9 2 .3 4 2.4 4.1 9.1 7.6 14.4 7.6h33c2.8 0 5 2.2 5 5v78c0 7.8 6.3 14.1 14.1 14.1h49.4c2.8 0 5 2.2 5 5v41.2c0 11.3 9.2 20.6 20.6 20.6h130.4c11.3 0 20.6-9.2 20.6-20.6v-88.6c0-1.7.9-3.3 2.3-4.2 48.5-31 77.4-83.8 77.4-141.2 0-92.4-75.1-167.6-167.4-167.6z" fill="#e205e9" opacity="1" data-original="#000000"></path><path d="M216.1 319.6c-18.3 0-33.2-15.5-33.2-34.6v-.5c-2.6.7-5.3 1-8 1-18.3 0-33.2-15.5-33.2-34.6 0-.8 0-1.7.1-2.5-1.1.1-2.3.1-3.5.1-23.7 0-43-20.1-43-44.8 0-15.1 7.1-28.9 18.9-37.1-2.6-5-4-10.6-4-16.4 0-18.8 14.5-34.2 32.5-34.6-.7-2.8-1-5.6-1-8.4 0-19.1 14.9-34.6 33.2-34.6 2.9 0 5.7.4 8.4 1.1 2.6-16.4 16.3-29 32.8-29 18.3 0 33.2 15.5 33.2 34.6 0 2.8-2.2 5-5 5s-5-2.2-5-5c0-13.6-10.4-24.6-23.2-24.6s-23.2 11-23.2 24.6v1.3c.1 1.8-.8 3.5-2.3 4.5s-3.5 1-5.1.1c-3.3-1.8-6.9-2.7-10.6-2.7-12.8 0-23.2 11-23.2 24.6 0 4.2 1 8.3 2.9 12 .9 1.8.7 3.9-.5 5.4-1.2 1.6-3.3 2.2-5.2 1.7-1.8-.5-3.7-.7-5.5-.7-12.8 0-23.2 11-23.2 24.6 0 5.5 1.7 10.8 4.9 15.1.9 1.2 1.2 2.7.9 4.1s-1.2 2.6-2.5 3.3c-11.2 6-18.1 17.9-18.1 31.1 0 19.2 14.8 34.8 33 34.8 2.8 0 5.6-.4 8.3-1.1 1.7-.5 3.6 0 4.9 1.3s1.7 3.2 1.2 4.9c-.7 2.3-1 4.8-1 7.2 0 13.6 10.4 24.6 23.2 24.6 4.1 0 8.1-1.1 11.6-3.3 1.8-1.1 4-1 5.6.3 1.6 1.2 2.3 3.4 1.8 5.4-.7 2.3-1 4.7-1 7.1 0 13.6 10.4 24.6 23.2 24.6s23.2-11 23.2-24.6c0-2.8 2.2-5 5-5s5 2.2 5 5c-.1 19.2-15 34.7-33.3 34.7z" fill="#e205e9" opacity="1" data-original="#000000"></path><path d="M272.5 319.6c-18.3 0-33.2-15.5-33.2-34.6 0-2.8 2.2-5 5-5s5 2.2 5 5c0 13.6 10.4 24.6 23.2 24.6s23.2-11 23.2-24.6c0-2.4-.3-4.8-1-7.1-.6-2 .1-4.1 1.8-5.3 1.6-1.2 3.9-1.4 5.6-.3 3.5 2.1 7.5 3.3 11.6 3.3 12.8 0 23.2-11 23.2-24.6 0-2.5-.3-4.9-1-7.2-.5-1.7 0-3.6 1.2-4.9 1.3-1.3 3.1-1.8 4.9-1.3 2.7.7 5.5 1.1 8.3 1.1 18.2 0 33-15.6 33-34.8 0-13.2-6.9-25.1-18.1-31.1-1.3-.7-2.2-1.9-2.5-3.3s0-2.9.9-4.1c3.2-4.4 4.9-9.6 4.9-15.1 0-13.6-10.4-24.6-23.2-24.6-1.9 0-3.7.2-5.5.7-1.9.5-3.9-.2-5.2-1.7-1.2-1.6-1.4-3.7-.5-5.4 1.9-3.6 2.9-7.8 2.9-12 0-13.6-10.4-24.6-23.2-24.6-3.7 0-7.3.9-10.6 2.7-1.6.9-3.5.8-5.1-.1-1.5-1-2.4-2.7-2.3-4.5v-1.3c0-13.6-10.4-24.6-23.2-24.6s-23.2 11-23.2 24.6c0 2.8-2.2 5-5 5s-5-2.2-5-5c0-19.1 14.9-34.6 33.2-34.6 16.5 0 30.2 12.6 32.8 29 2.7-.7 5.6-1.1 8.4-1.1 18.3 0 33.2 15.5 33.2 34.6 0 2.9-.3 5.7-1 8.4 18 .4 32.5 15.8 32.5 34.6 0 5.8-1.4 11.4-4 16.4 11.8 8.3 18.9 22.1 18.9 37.1 0 24.7-19.3 44.8-43 44.8-1.2 0-2.3 0-3.5-.1.1.8.1 1.7.1 2.5 0 19.1-14.9 34.6-33.2 34.6-2.7 0-5.4-.3-8-1v.5c-.1 18.9-15 34.4-33.3 34.4z" fill="#e205e9" opacity="1" data-original="#000000"></path></g></svg>