<svg xmlns="http://www.w3.org/2000/svg" width="36" height="36" fill="none"><g clip-path="url(#a)"><path fill="currentColor" d="M36 6c0-3.309-2.691-6-6-6s-6 2.691-6 6a6.01 6.01 0 0 0 4.5 5.81V12c0 2.481-2.019 4.5-4.5 4.5h-1.5c-1.79 0-3.4.788-4.5 2.035a5.985 5.985 0 0 0-4.5-2.035H12A4.505 4.505 0 0 1 7.5 12v-.19A6.01 6.01 0 0 0 12 6c0-3.309-2.691-6-6-6S0 2.691 0 6a6.01 6.01 0 0 0 4.5 5.81V12c0 4.136 3.364 7.5 7.5 7.5h1.5c1.655 0 3 1.346 3 3v1.69A6.01 6.01 0 0 0 12 30c0 3.309 2.691 6 6 6s6-2.691 6-6a6.01 6.01 0 0 0-4.5-5.81V22.5c0-1.654 1.346-3 3-3H24c4.136 0 7.5-3.364 7.5-7.5v-.19A6.01 6.01 0 0 0 36 6zM3 6c0-1.654 1.346-3 3-3s3 1.346 3 3-1.346 3-3 3-3-1.346-3-3zm18 24c0 1.654-1.346 3-3 3s-3-1.346-3-3 1.346-3 3-3 3 1.346 3 3zm9-21c-1.654 0-3-1.346-3-3s1.346-3 3-3 3 1.346 3 3-1.346 3-3 3z"/></g><defs><clipPath id="a"><path fill="#fff" d="M0 0h36v36H0z"/></clipPath></defs></svg>