<svg xmlns="http://www.w3.org/2000/svg" version="1.1" xmlns:xlink="http://www.w3.org/1999/xlink" width="512" height="512" x="0" y="0" viewBox="0 0 511.996 511.996" style="enable-background:new 0 0 512 512" xml:space="preserve" class=""><g><path d="m227.751 375.922-3.063 30.593m62.62-.001-3.063-30.592M287.308 406.514l47.807-4.615 43.434-16.821 35.027-111.43c.701-2.229 9.717-25.098 34.736-17.234 14.15 4.448 22.016 19.525 17.568 33.676l-41.554 132.194-66.578 43.88-15 38.332h-37.5m-14.999 0H169.247l-15-38.332-66.578-43.88-41.553-132.193c-4.447-14.15 3.418-29.227 17.568-33.676 25.02-7.864 34.035 15.005 34.736 17.234l35.027 111.43 43.434 16.821 47.807 4.615M315.997 285.537v37.5c0 33-27 60-59.999 60s-59.999-27-59.999-60v-37.5" style="fill-rule:evenodd;clip-rule:evenodd;stroke-width:15.0001;stroke-miterlimit:22.9256;" fill-rule="evenodd" clip-rule="evenodd" fill="none" stroke="#e205e9" stroke-width="15.0001" stroke-miterlimit="22.9256" data-original="#000000" opacity="1"></path><path d="M225.998 255.537c0 16.5 13.5 30 30 30h75.001c8.25 0 15 6.75 15 15v7.5c0 8.25-6.75 15-15 15h-15m-120 0h-15c-8.25 0-15-6.751-15-15v-7.5c0-8.249 6.751-15 15-15h15c16.5 0 30-13.5 30-30" style="fill-rule:evenodd;clip-rule:evenodd;stroke-width:15.0001;stroke-miterlimit:22.9256;" fill-rule="evenodd" clip-rule="evenodd" fill="none" stroke="#e205e9" stroke-width="15.0001" stroke-miterlimit="22.9256" data-original="#000000" opacity="1"></path><path d="M180.999 285.537v-25c0-17.853 6.325-34.298 16.841-47.214m10.945-10.945c12.914-10.517 29.36-16.841 47.214-16.841 41.25 0 75 33.75 75 75v25M263.499 230.537v-15m29.999 30v-15M287.308 406.514c0 17.292-14.018 31.31-31.31 31.31s-31.31-14.018-31.31-31.31M56.48 323.061l52.304-16.441M455.516 323.061l-52.304-16.441M255.998 14.328l23.944 38.976 44.468 10.728-29.669 34.817 3.538 45.607-42.281-17.459-42.281 17.459 3.539-45.607-29.67-34.817 44.468-10.728z" style="fill-rule:evenodd;clip-rule:evenodd;stroke-width:15.0001;stroke-miterlimit:22.9256;" fill-rule="evenodd" clip-rule="evenodd" fill="none" stroke="#e205e9" stroke-width="15.0001" stroke-miterlimit="22.9256" data-original="#000000" opacity="1"></path><path d="m255.998 14.328 23.944 38.976 44.468 10.728-29.67 34.817 3.538 45.607-42.281-17.459-42.281 17.459 3.538-45.607-29.67-34.817 44.468-10.728 23.946-38.976zM92.467 96.025l-1.242 31.59-23.168 21.512 29.661 10.943 13.3 28.682 19.572-24.828 31.388-3.785-17.565-26.287 6.099-31.021-30.428 8.581-27.617-15.387zm327.062 0 1.242 31.59 23.168 21.512-29.661 10.943-13.3 28.682-19.572-24.828-31.388-3.785 17.565-26.287-6.099-31.021 30.428 8.581 27.617-15.387z" style="fill-rule:evenodd;clip-rule:evenodd;stroke-width:15.0001;stroke-miterlimit:22.9256;" fill-rule="evenodd" clip-rule="evenodd" fill="none" stroke="#e205e9" stroke-width="15.0001" stroke-miterlimit="22.9256" data-original="#000000" opacity="1"></path></g></svg>