<svg xmlns="http://www.w3.org/2000/svg" version="1.1" xmlns:xlink="http://www.w3.org/1999/xlink" width="512" height="512" x="0" y="0" viewBox="0 0 32 32" style="enable-background:new 0 0 512 512" xml:space="preserve" class=""><g><path fill="#e205e9" d="M21.42 22h-7.39c-.28 0-.5-.22-.5-.5s.22-.5.5-.5h6.86c-.04-.27-.13-.61-.33-.92-.46-.72-1.36-1.08-2.67-1.08h-3.73c-.09 0-.18-.03-.26-.07-2.07-1.27-4.85-.92-6.6.84l-.22.26c-.18.21-.49.24-.7.06s-.24-.49-.06-.71l.25-.29c2.07-2.07 5.29-2.51 7.74-1.08h3.59c1.67 0 2.85.52 3.51 1.54.52.81.52 1.67.52 1.96-.01.27-.23.49-.51.49z" opacity="1" data-original="#263238" class=""></path><path fill="#e205e9" d="M10.07 26.73c-.19 0-.37-.11-.45-.29a.492.492 0 0 1 .23-.66l.15-.07c.51-.41 1.34-.71 2-.71h4.95c.63 0 1.26-.09 1.87-.26l5.34-1.5 5.19-3.06c-.12-.5-.37-.85-.74-1.06-.67-.37-1.78-.24-3.04.35l-2.83 1.47c-.04.02-.09.04-.14.05l-1.17.21c-.27.04-.53-.13-.58-.4s.13-.53.4-.58l1.09-.2 2.78-1.44c1.59-.75 2.99-.86 3.96-.33.51.28 1.15.87 1.31 2.12.03.2-.07.39-.24.5l-5.54 3.27c-.04.02-.08.04-.12.05l-5.41 1.52c-.7.2-1.42.3-2.14.3H12c-.44 0-1.08.23-1.4.51-.04.03-.07.06-.12.08l-.21.1c-.06.02-.13.03-.2.03z" opacity="1" data-original="#263238" class=""></path><path fill="#e205e9" d="M7.86 31.03a.47.47 0 0 1-.35-.15c-.2-.2-.2-.51 0-.71l2.88-2.88-5.66-5.66-2.88 2.88c-.2.2-.51.2-.71 0s-.2-.51 0-.71l3.24-3.24c.2-.2.51-.2.71 0l6.36 6.36c.09.09.15.22.15.35s-.05.26-.15.35l-3.24 3.24c-.09.12-.22.17-.35.17zM8.5 11.5c-.28 0-.5-.22-.5-.5v-.5c0-.28.22-.5.5-.5s.5.22.5.5v.5c0 .28-.22.5-.5.5zM8.5 9c-.28 0-.5-.22-.5-.5V8c0-.28.22-.5.5-.5s.5.22.5.5v.5c0 .28-.22.5-.5.5zM7.5 10H7c-.28 0-.5-.22-.5-.5S6.72 9 7 9h.5c.28 0 .5.22.5.5s-.22.5-.5.5zM10 10h-.5c-.28 0-.5-.22-.5-.5s.22-.5.5-.5h.5c.28 0 .5.22.5.5s-.22.5-.5.5zM4.5 6c-.28 0-.5-.22-.5-.5v-1c0-.28.22-.5.5-.5s.5.22.5.5v1c0 .28-.22.5-.5.5zM4.5 3c-.28 0-.5-.22-.5-.5v-1c0-.28.22-.5.5-.5s.5.22.5.5v1c0 .28-.22.5-.5.5zM3.5 4h-1c-.28 0-.5-.22-.5-.5s.22-.5.5-.5h1c.28 0 .5.22.5.5s-.22.5-.5.5zM6.5 4h-1c-.28 0-.5-.22-.5-.5s.22-.5.5-.5h1c.28 0 .5.22.5.5s-.22.5-.5.5zM26.11 14.99c-.17 0-.34-.09-.43-.25-.27-.47-.69-.85-1.18-1.06l-2.19-.94a.503.503 0 0 1-.26-.66c.11-.25.4-.37.66-.26l2.19.94c.7.3 1.29.83 1.66 1.48.14.24.05.55-.19.68-.09.05-.18.07-.26.07zM15.89 14.99a.505.505 0 0 1-.44-.75c.38-.66.96-1.19 1.66-1.48l2.19-.95c.25-.11.55.01.66.26s-.01.55-.26.66l-2.19.95c-.5.21-.92.59-1.18 1.06a.5.5 0 0 1-.44.25z" opacity="1" data-original="#263238" class=""></path><path fill="#e205e9" d="M22.5 12.8c-.28 0-.5-.22-.5-.5v-1.81c0-.16.07-.3.2-.4.51-.39.8-.96.8-1.59V7c0-1.1-.9-2-2-2s-2 .9-2 2v1.5c0 .63.29 1.2.8 1.59.13.09.2.24.2.4v1.81c0 .28-.22.5-.5.5s-.5-.22-.5-.5v-1.58c-.64-.57-1-1.37-1-2.22V7c0-1.65 1.35-3 3-3s3 1.35 3 3v1.5c0 .86-.36 1.65-1 2.22v1.58c0 .28-.22.5-.5.5z" opacity="1" data-original="#263238" class=""></path><path fill="#e205e9" d="M21.5 11.45a.501.501 0 0 1-.1-.99c.93-.19 1.6-1.01 1.6-1.96 0-.28.22-.5.5-.5s.5.22.5.5c0 1.42-1.01 2.65-2.4 2.94-.03.01-.06.01-.1.01z" opacity="1" data-original="#263238" class=""></path><path fill="#e205e9" d="M21 17c-4.41 0-8-3.59-8-8s3.59-8 8-8 8 3.59 8 8-3.59 8-8 8zm0-15c-3.86 0-7 3.14-7 7s3.14 7 7 7 7-3.14 7-7-3.14-7-7-7z" opacity="1" data-original="#263238" class=""></path></g></svg>