<svg xmlns="http://www.w3.org/2000/svg" version="1.1" xmlns:xlink="http://www.w3.org/1999/xlink" width="512" height="512" x="0" y="0" viewBox="0 0 64 64" style="enable-background:new 0 0 512 512" xml:space="preserve" class=""><g><path d="M49.409 60.452h-21.25a1 1 0 0 1-.979-.796l-.891-4.286a1.538 1.538 0 0 0-1.501-1.221h-5.517a7.19 7.19 0 0 1-7.091-5.953l-1.192-6.788-3.01-1.399a3.089 3.089 0 0 1-1.287-4.49l4.191-6.441v-2.99c0-12.428 10.111-22.539 22.539-22.539h1.476c10.355 0 19.457 6.987 22.134 16.991a23.02 23.02 0 0 1-2.56 17.832l-4.146 6.813a10.365 10.365 0 0 0-1.298 7.519l1.36 6.546a.995.995 0 0 1-.978 1.202zm-20.437-2H48.18l-1.11-5.343a12.355 12.355 0 0 1 1.547-8.966l4.146-6.813A21.005 21.005 0 0 0 55.1 21.055c-2.443-9.13-10.751-15.507-20.202-15.507h-1.476c-11.325 0-20.539 9.214-20.539 20.539v3.287a.994.994 0 0 1-.162.545l-4.354 6.69a1.08 1.08 0 0 0-.135.896c.089.309.298.554.589.689l3.482 1.62c.296.138.506.412.563.734l1.282 7.301a5.192 5.192 0 0 0 5.121 4.299h5.517a3.547 3.547 0 0 1 3.459 2.814zm5.318-29.384c-.87 0-1.74-.331-2.402-.993l-6.513-6.513a5.954 5.954 0 0 1-1.734-4.487 5.972 5.972 0 0 1 2.165-4.311c2.33-1.924 5.9-1.686 8.128.541l.356.356.357-.356c2.228-2.229 5.798-2.465 8.127-.541a5.977 5.977 0 0 1 2.165 4.311 5.961 5.961 0 0 1-1.735 4.488l-6.513 6.513a3.386 3.386 0 0 1-2.401.992zm-4.79-15.61c-.873 0-1.731.279-2.421.848a3.917 3.917 0 0 0-1.44 2.864 3.956 3.956 0 0 0 1.151 2.979l6.513 6.513a1.398 1.398 0 0 0 1.976 0l6.513-6.513a3.955 3.955 0 0 0 1.151-2.979 3.917 3.917 0 0 0-1.44-2.864c-1.543-1.275-3.934-1.094-5.44.413l-1.064 1.064a1 1 0 0 1-1.414 0l-1.063-1.064a4.295 4.295 0 0 0-3.022-1.261zm-6.898 16.686a1 1 0 1 0-1.228-1.578c-1.208.94-3.266.939-4.472 0a1 1 0 0 0-1.228 1.578c.953.742 2.183 1.15 3.465 1.15 1.28 0 2.51-.408 3.463-1.15z" fill="#e205e9" opacity="1" data-original="#000000"></path></g></svg>