<svg xmlns="http://www.w3.org/2000/svg" width="36" height="36" fill="none"><g fill="currentColor" clip-path="url(#a)"><path d="M25.5 27a4.5 4.5 0 1 0-9 0h3a1.5 1.5 0 1 1 3 0c0 .75-1.275 1.707-2.4 2.55-1.688 1.266-3.6 2.7-3.6 4.95V36h9v-3h-4.935c.406-.354.883-.711 1.335-1.05 1.688-1.266 3.6-2.7 3.6-4.95zm7.5 1.5h-3v-6h-3v6a3 3 0 0 0 3 3h3V36h3V22.5h-3v6zM19.5 9h-3v7.5h-6v3h9V9z"/><path d="M33 3v5.061a17.992 17.992 0 1 0-19.5 27.346V32.31A15 15 0 1 1 30.954 10.5H25.5v3H33a3 3 0 0 0 3-3V3h-3z"/></g><defs><clipPath id="a"><path fill="#fff" d="M0 0h36v36H0z"/></clipPath></defs></svg>