
<svg xmlns="http://www.w3.org/2000/svg" width="36" height="36" fill="none"><g clip-path="url(#a)"><path fill="currentColor" d="M12 0C7.037 0 3 4.037 3 9s4.037 9 9 9 9-4.037 9-9-4.037-9-9-9zm0 15c-3.309 0-6-2.691-6-6s2.691-6 6-6 6 2.691 6 6-2.691 6-6 6zm-4.5 6h9v3h-9A4.505 4.505 0 0 0 3 28.5V36H0v-7.5C0 24.364 3.365 21 7.5 21zm25.929-3.599L27.75 15.52l-5.679 1.882a3.745 3.745 0 0 0-2.571 3.56V26.1c0 5.353 5.571 8.554 7.28 9.408l.905.453.941-.378c1.73-.696 7.375-3.438 7.375-9.483v-5.139c0-1.62-1.032-3.05-2.57-3.56h-.002zM33 26.1c0 3.873-3.636 5.887-5.183 6.569-1.373-.737-5.317-3.149-5.317-6.569v-5.139a.75.75 0 0 1 .515-.712l4.735-1.57 4.736 1.57a.75.75 0 0 1 .514.712V26.1z"/></g><defs><clipPath id="a"><path fill="#fff" d="M0 0h36v36H0z"/></clipPath></defs></svg>