<svg xmlns="http://www.w3.org/2000/svg" width="36" height="36" fill="none"><g fill="currentColor" clip-path="url(#a)"><path d="m17.922 36.014-.531-.236C16.8 35.518 3 29.286 3 18V8.214a4.475 4.475 0 0 1 3.077-4.248L18 .014l11.924 3.952A4.474 4.474 0 0 1 33 8.214V18c0 12.866-13.932 17.633-14.526 17.83l-.552.184zM18 3.159 7.026 6.8A1.488 1.488 0 0 0 6 8.213V18c0 8.241 9.66 13.587 12.07 14.792C20.477 31.824 30 27.395 30 18V8.214a1.488 1.488 0 0 0-1.026-1.416L18 3.16z"/><path d="M16.667 21.813h-.05a2.809 2.809 0 0 1-2.017-.9l-3.46-3.6 2.162-2.073 3.366 3.51 7.772-7.771 2.12 2.12-7.89 7.892a2.809 2.809 0 0 1-2.003.822z"/></g><defs><clipPath id="a"><path fill="#fff" d="M0 0h36v36H0z"/></clipPath></defs></svg>