<svg xmlns="http://www.w3.org/2000/svg" width="16" height="16" fill="none"><g clip-path="url(#a)"><path fill="#F0F0F0" d="M16.001 3.067c-.6.266-1.2.466-1.867.533a3.55 3.55 0 0 0 1.467-1.8c-.667.4-1.333.667-2.067.8a3.227 3.227 0 0 0-2.4-1.067A3.272 3.272 0 0 0 7.868 4.8c0 .267 0 .533.066.733a9.205 9.205 0 0 1-6.8-3.466 3.009 3.009 0 0 0-.466 1.666c0 1.134.6 2.134 1.466 2.734-.533 0-1.066-.134-1.466-.4v.066c0 1.6 1.133 2.934 2.6 3.2-.267.067-.534.134-.867.134-.2 0-.4 0-.6-.067a3.16 3.16 0 0 0 3.067 2.266c-1.134.867-2.534 1.4-4.067 1.4-.267 0-.533 0-.8-.066a9.332 9.332 0 0 0 5 1.466c6.067 0 9.333-5 9.333-9.333v-.4c.667-.466 1.2-1.066 1.667-1.666z"/></g><defs><clipPath id="a"><path fill="#fff" d="M0 0h16v16H0z"/></clipPath></defs></svg>